{
  "accessors": [
    {
      "bufferView": 2,
      "componentType": 5126,
      "count": 5016,
      "max": [
        21.947010040283203,
        59.6359748840332,
        56.68788528442383
      ],
      "min": [
        -21.947010040283203,
        -4.818774223327637,
        -54.0506591796875
      ],
      "type": "VEC3"
    },
    {
      "bufferView": 2,
      "byteOffset": 60192,
      "componentType": 5126,
      "count": 5016,
      "max": [
        1.0,
        1.0,
        1.0
      ],
      "min": [
        -1.0,
        -1.0,
        -0.9999998807907104
      ],
      "type": "VEC3"
    },
    {
      "bufferView": 1,
      "componentType": 5126,
      "count": 5016,
      "max": [
        0.9918439388275146,
        0.9936668872833252
      ],
      "min": [
        0.006459474563598633,
        0.00422137975692749
      ],
      "type": "VEC2"
    },
    {
      "bufferView": 1,
      "byteOffset": 40128,
      "componentType": 5126,
      "count": 5016,
      "max": [
        0.9918439388275146,
        0.9936668872833252
      ],
      "min": [
        0.006459474563598633,
        0.00422137975692749
      ],
      "type": "VEC2"
    },
    {
      "bufferView": 1,
      "byteOffset": 80256,
      "componentType": 5126,
      "count": 5016,
      "max": [
        0.9918439388275146,
        0.9936668872833252
      ],
      "min": [
        0.006459474563598633,
        0.00422137975692749
      ],
      "type": "VEC2"
    },
    {
      "bufferView": 0,
      "componentType": 5125,
      "count": 17640,
      "type": "SCALAR"
    },
    {
      "bufferView": 2,
      "byteOffset": 120384,
      "componentType": 5126,
      "count": 3386,
      "max": [
        17.11565589904785,
        67.67420196533203,
        55.34959030151367
      ],
      "min": [
        -16.925785064697266,
        17.91016960144043,
        -39.869667053222656
      ],
      "type": "VEC3"
    },
    {
      "bufferView": 2,
      "byteOffset": 161016,
      "componentType": 5126,
      "count": 3386,
      "max": [
        0.9999926686286926,
        1.0,
        1.0
      ],
      "min": [
        -0.9999924302101135,
        -1.0,
        -1.0
      ],
      "type": "VEC3"
    },
    {
      "bufferView": 1,
      "byteOffset": 120384,
      "componentType": 5126,
      "count": 3386,
      "max": [
        0.9902089834213257,
        0.9918388724327087
      ],
      "min": [
        0.0072956085205078125,
        0.006860792636871338
      ],
      "type": "VEC2"
    },
    {
      "bufferView": 1,
      "byteOffset": 147472,
      "componentType": 5126,
      "count": 3386,
      "max": [
        0.9902089834213257,
        0.9918388724327087
      ],
      "min": [
        0.0072956085205078125,
        0.006860792636871338
      ],
      "type": "VEC2"
    },
    {
      "bufferView": 1,
      "byteOffset": 174560,
      "componentType": 5126,
      "count": 3386,
      "max": [
        0.9902089834213257,
        0.9918388724327087
      ],
      "min": [
        0.0072956085205078125,
        0.006860792636871338
      ],
      "type": "VEC2"
    },
    {
      "bufferView": 0,
      "byteOffset": 70560,
      "componentType": 5125,
      "count": 11190,
      "type": "SCALAR"
    }
  ],
  "asset": {
    "extras": {
      "author": "AkaIntensity (https://sketchfab.com/AkaIntensity)",
      "license": "CC-BY-4.0 (http://creativecommons.org/licenses/by/4.0/)",
      "source": "https://sketchfab.com/3d-models/cargo-ship-c95d341642c949bd85a03c97a15f81c3",
      "title": "Cargo Ship"
    },
    "generator": "Sketchfab-12.65.0",
    "version": "2.0"
  },
  "bufferViews": [
    {
      "buffer": 0,
      "byteLength": 115320,
      "name": "floatBufferViews",
      "target": 34963
    },
    {
      "buffer": 0,
      "byteLength": 201648,
      "byteOffset": 115320,
      "byteStride": 8,
      "name": "floatBufferViews",
      "target": 34962
    },
    {
      "buffer": 0,
      "byteLength": 201648,
      "byteOffset": 316968,
      "byteStride": 12,
      "name": "floatBufferViews",
      "target": 34962
    }
  ],
  "buffers": [
    {
      "byteLength": 518616,
      "uri": "scene.bin"
    }
  ],
  "extensionsRequired": [
    "KHR_materials_pbrSpecularGlossiness"
  ],
  "extensionsUsed": [
    "KHR_materials_pbrSpecularGlossiness"
  ],
  "images": [
    {
      "uri": "textures/material_diffuse.png"
    },
    {
      "uri": "textures/material_specularGlossiness.png"
    },
    {
      "uri": "textures/material_1_diffuse.png"
    },
    {
      "uri": "textures/material_1_specularGlossiness.png"
    }
  ],
  "materials": [
    {
      "alphaCutoff": 0.0,
      "alphaMode": "MASK",
      "doubleSided": true,
      "extensions": {
        "KHR_materials_pbrSpecularGlossiness": {
          "diffuseFactor": [
            1.0,
            1.0,
            1.0,
            1.0
          ],
          "diffuseTexture": {
            "index": 0
          },
          "glossinessFactor": 1.0,
          "specularFactor": [
            1.0,
            1.0,
            1.0
          ],
          "specularGlossinessTexture": {
            "index": 1
          }
        }
      },
      "name": "material"
    },
    {
      "alphaCutoff": 0.0,
      "alphaMode": "MASK",
      "doubleSided": true,
      "extensions": {
        "KHR_materials_pbrSpecularGlossiness": {
          "diffuseFactor": [
            1.0,
            1.0,
            1.0,
            1.0
          ],
          "diffuseTexture": {
            "index": 2
          },
          "glossinessFactor": 1.0,
          "specularFactor": [
            1.0,
            1.0,
            1.0
          ],
          "specularGlossinessTexture": {
            "index": 3
          }
        }
      },
      "name": "material_1"
    }
  ],
  "meshes": [
    {
      "name": "Object_0",
      "primitives": [
        {
          "attributes": {
            "NORMAL": 1,
            "POSITION": 0,
            "TEXCOORD_0": 2,
            "TEXCOORD_1": 3,
            "TEXCOORD_2": 4
          },
          "indices": 5,
          "material": 0,
          "mode": 4
        }
      ]
    },
    {
      "name": "Object_1",
      "primitives": [
        {
          "attributes": {
            "NORMAL": 7,
            "POSITION": 6,
            "TEXCOORD_0": 8,
            "TEXCOORD_1": 9,
            "TEXCOORD_2": 10
          },
          "indices": 11,
          "material": 1,
          "mode": 4
        }
      ]
    }
  ],
  "nodes": [
    {
      "children": [
        1
      ],
      "matrix": [
        1.0,
        0.0,
        0.0,
        0.0,
        0.0,
        2.220446049250313e-16,
        -1.0,
        0.0,
        0.0,
        1.0,
        2.220446049250313e-16,
        0.0,
        0.0,
        0.0,
        0.0,
        1.0
      ],
      "name": "Sketchfab_model"
    },
    {
      "children": [
        2
      ],
      "name": "root"
    },
    {
      "children": [
        3
      ],
      "matrix": [
        1.0,
        0.0,
        0.0,
        0.0,
        0.0,
        2.220446049250313e-16,
        1.0,
        0.0,
        0.0,
        -1.0,
        2.220446049250313e-16,
        0.0,
        0.0,
        0.0,
        0.0,
        1.0
      ],
      "name": "GLTF_SceneRootNode"
    },
    {
      "children": [
        4
      ],
      "name": "root_0"
    },
    {
      "children": [
        5,
        7
      ],
      "matrix": [
        -1.6858742456511325e-10,
        0.0,
        -0.0010000001639127588,
        0.0,
        0.0,
        0.0010000000474974513,
        0.0,
        0.0,
        0.0010000001639127588,
        0.0,
        -1.6858742456511325e-10,
        0.0,
        -0.4661586582660675,
        0.07500006258487701,
        0.39105987548828125,
        1.0
      ],
      "name": "node_id67_1"
    },
    {
      "children": [
        6
      ],
      "matrix": [
        7.062755107879639,
        0.0,
        0.0,
        0.0,
        0.0,
        7.062755107879639,
        0.0,
        0.0,
        0.0,
        0.0,
        7.062755107879639,
        0.0,
        0.00023012221208773553,
        -221.96624755859375,
        381.74658203125,
        1.0
      ],
      "name": "node_id63_2"
    },
    {
      "mesh": 0,
      "name": "Object_6"
    },
    {
      "children": [
        8
      ],
      "matrix": [
        7.062755107879639,
        0.0,
        0.0,
        0.0,
        0.0,
        7.062755107879639,
        0.0,
        0.0,
        0.0,
        0.0,
        7.062755107879639,
        0.0,
        0.00023012221208773553,
        -221.96624755859375,
        381.74658203125,
        1.0
      ],
      "name": "node_id65_3"
    },
    {
      "mesh": 1,
      "name": "Object_8"
    }
  ],
  "samplers": [
    {
      "magFilter": 9729,
      "minFilter": 9987,
      "wrapS": 10497,
      "wrapT": 10497
    }
  ],
  "scene": 0,
  "scenes": [
    {
      "name": "Sketchfab_Scene",
      "nodes": [
        0
      ]
    }
  ],
  "textures": [
    {
      "sampler": 0,
      "source": 0
    },
    {
      "sampler": 0,
      "source": 1
    },
    {
      "sampler": 0,
      "source": 2
    },
    {
      "sampler": 0,
      "source": 3
    }
  ]
}
